<svg width="20" height="20" viewBox="0 0 20 20" fill="none" xmlns="http://www.w3.org/2000/svg">
<path d="M6.875 4.375H3.125V3.75C3.125 3.4048 3.4048 3.125 3.75 3.125H6.25C6.5952 3.125 6.875 3.4048 6.875 3.75V4.375Z" fill="#463C4B"/>
<path d="M16.875 4.375H13.125V3.75C13.125 3.4048 13.4048 3.125 13.75 3.125H16.25C16.5952 3.125 16.875 3.4048 16.875 3.75V4.375Z" fill="#463C4B"/>
<path d="M0.625 8.125V13.7814C0.625 15.49 2.01004 16.875 3.71859 16.875C4.53906 16.875 5.32594 16.5491 5.90609 15.9689L8.04781 13.8272C8.89762 12.9774 9.375 11.8248 9.375 10.6231V8.125H0.625Z" fill="#463C4B"/>
<path d="M19.375 8.125V13.7814C19.375 15.49 17.99 16.875 16.2814 16.875C15.4609 16.875 14.6741 16.5491 14.0939 15.9689L11.9522 13.8272C11.1024 12.9774 10.625 11.8248 10.625 10.6231V8.125H19.375Z" fill="#463C4B"/>
<path d="M15 3.75C13.9781 3.75 13.0382 4.10039 12.2935 4.6875H7.70648C6.96184 4.10039 6.02187 3.75 5 3.75C2.58375 3.75 0.625 5.70875 0.625 8.125C0.625 10.5412 2.58375 12.5 5 12.5C5.47898 12.5 5.93988 12.4228 6.37121 12.2805C6.6684 13.1358 7.48098 13.75 8.4375 13.75C9.04977 13.75 9.60293 13.4982 10 13.0928C10.3971 13.4982 10.9502 13.75 11.5625 13.75C12.519 13.75 13.3316 13.1358 13.6288 12.2805C14.0601 12.4228 14.521 12.5 15 12.5C17.4163 12.5 19.375 10.5412 19.375 8.125C19.375 5.70875 17.4163 3.75 15 3.75Z" fill="#555A6E"/>
<path d="M11.0418 6.875H8.95849C8.44072 6.875 8.021 6.45527 8.021 5.9375V4.6875H11.9793V5.9375C11.9793 6.45527 11.5596 6.875 11.0418 6.875Z" fill="#463C4B"/>
<path d="M17.0312 9.21875C17.6353 9.21875 18.125 8.72906 18.125 8.125C18.125 7.52094 17.6353 7.03125 17.0312 7.03125C16.4272 7.03125 15.9375 7.52094 15.9375 8.125C15.9375 8.72906 16.4272 9.21875 17.0312 9.21875Z" fill="#FF6E91"/>
<path d="M12.9688 9.21875C13.5728 9.21875 14.0625 8.72906 14.0625 8.125C14.0625 7.52094 13.5728 7.03125 12.9688 7.03125C12.3647 7.03125 11.875 7.52094 11.875 8.125C11.875 8.72906 12.3647 9.21875 12.9688 9.21875Z" fill="#FF6E91"/>
<path d="M15 7.1875C15.6041 7.1875 16.0938 6.69781 16.0938 6.09375C16.0938 5.48969 15.6041 5 15 5C14.3959 5 13.9062 5.48969 13.9062 6.09375C13.9062 6.69781 14.3959 7.1875 15 7.1875Z" fill="#00D2D2"/>
<path d="M15 11.25C15.6041 11.25 16.0938 10.7603 16.0938 10.1562C16.0938 9.55219 15.6041 9.0625 15 9.0625C14.3959 9.0625 13.9062 9.55219 13.9062 10.1562C13.9062 10.7603 14.3959 11.25 15 11.25Z" fill="#00D2D2"/>
<path d="M11.5623 12.7083C12.1951 12.7083 12.7081 12.1953 12.7081 11.5625C12.7081 10.9297 12.1951 10.4167 11.5623 10.4167C10.9295 10.4167 10.4165 10.9297 10.4165 11.5625C10.4165 12.1953 10.9295 12.7083 11.5623 12.7083Z" fill="#463C4B"/>
<path d="M8.43732 12.7083C9.07014 12.7083 9.58314 12.1953 9.58314 11.5625C9.58314 10.9297 9.07014 10.4167 8.43732 10.4167C7.8045 10.4167 7.2915 10.9297 7.2915 11.5625C7.2915 12.1953 7.8045 12.7083 8.43732 12.7083Z" fill="#463C4B"/>
<path d="M5.82836 6.96855L5.29609 7.42477C5.23945 7.47332 5.1673 7.5 5.09273 7.5H4.90727C4.83266 7.5 4.76055 7.47332 4.70391 7.42477L4.17164 6.96855C4.10238 6.90918 4.0625 6.8225 4.0625 6.73129V5.3125C4.0625 5.13992 4.20242 5 4.375 5H5.625C5.79758 5 5.9375 5.13992 5.9375 5.3125V6.73129C5.9375 6.8225 5.89762 6.90918 5.82836 6.96855Z" fill="#463C4B"/>
<path d="M5.82836 9.28145L5.29609 8.82523C5.23945 8.77668 5.1673 8.75 5.09273 8.75H4.90727C4.83266 8.75 4.76055 8.77668 4.70391 8.82523L4.17164 9.28145C4.10238 9.34082 4.0625 9.4275 4.0625 9.51871V10.9375C4.0625 11.1101 4.20242 11.25 4.375 11.25H5.625C5.79758 11.25 5.9375 11.1101 5.9375 10.9375V9.51871C5.9375 9.4275 5.89762 9.34082 5.82836 9.28145Z" fill="#463C4B"/>
<path d="M3.84355 7.29664L4.29977 7.82891C4.34832 7.88555 4.375 7.9577 4.375 8.03227V8.21773C4.375 8.29234 4.34832 8.36445 4.29977 8.42109L3.84355 8.95336C3.78418 9.02262 3.6975 9.0625 3.60629 9.0625H2.1875C2.01492 9.0625 1.875 8.92258 1.875 8.75V7.5C1.875 7.32742 2.01492 7.1875 2.1875 7.1875H3.60629C3.6975 7.1875 3.78418 7.22738 3.84355 7.29664Z" fill="#463C4B"/>
<path d="M6.15645 7.29664L5.70023 7.82891C5.65168 7.88555 5.625 7.9577 5.625 8.03227V8.21773C5.625 8.29234 5.65168 8.36445 5.70023 8.42109L6.15645 8.95336C6.21582 9.02262 6.3025 9.0625 6.39371 9.0625H7.8125C7.98508 9.0625 8.125 8.92258 8.125 8.75V7.5C8.125 7.32742 7.98508 7.1875 7.8125 7.1875H6.39371C6.3025 7.1875 6.21582 7.22738 6.15645 7.29664Z" fill="#463C4B"/>
</svg>
