<svg width="20" height="18" viewBox="0 0 20 18" fill="none" xmlns="http://www.w3.org/2000/svg">
<path d="M0.434032 8.1573C0.0403652 7.79689 -0.0986004 7.26794 0.0712013 6.77624C0.241404 6.28454 0.684731 5.93354 1.22938 5.85905L6.07193 5.19805C6.27818 5.16984 6.45639 5.04832 6.5485 4.87263L8.71347 0.750909C8.95656 0.287798 9.44995 0 9.9998 0C10.5493 0 11.0426 0.287798 11.2857 0.750909L13.4511 4.87301C13.5432 5.0487 13.7218 5.17021 13.9281 5.19843L18.7706 5.85942C19.3149 5.93354 19.7586 6.28491 19.9288 6.77662C20.0986 7.26832 19.9596 7.79727 19.566 8.15767L16.0622 11.366C15.9128 11.5029 15.8443 11.7 15.8796 11.8927L16.7062 16.4229C16.7795 16.8217 16.6681 17.2096 16.3934 17.5154C15.9665 17.9921 15.2212 18.1373 14.6253 17.8431L10.2946 15.704C10.1135 15.6148 9.88566 15.6156 9.70505 15.704L5.3739 17.8431C5.16325 17.9473 4.93859 18 4.70671 18C4.28341 18 3.88213 17.8232 3.6062 17.5154C3.33107 17.2096 3.22014 16.821 3.29343 16.4229L4.12041 11.8927C4.15565 11.6997 4.08717 11.5029 3.9378 11.366L0.434032 8.1573Z" fill="#FFB800"/>
</svg>
